<svg width="281" height="283" viewBox="0 0 281 283" fill="none" xmlns="http://www.w3.org/2000/svg">
<clipPath id="mask">
    <path d="M52.4089 178.881L117.819 113.465L125.958 121.614L161.196 156.847L169.34 164.991L81.9884 252.343C78.5709 255.756 74.5568 258.361 70.056 260.086C65.5938 261.808 60.8261 262.569 56.0221 262.327C55.623 262.306 55.2249 262.295 54.833 262.295C48.7698 262.295 43.0688 264.657 38.7813 268.945L30.0057 277.731C26.6621 281.06 22.239 282.887 17.5397 282.887H17.5138C12.7594 282.887 8.30265 281.016 4.96452 277.618C-1.77954 270.749 -1.63399 259.521 5.28814 252.589L13.8576 244.019C16.1195 241.758 17.8462 239.098 18.9907 236.11C20.1534 233.103 20.6512 229.945 20.4776 226.709C19.9522 217.129 23.5935 207.692 30.4682 200.821L52.3312 178.951C52.356 178.927 52.3835 178.905 52.4089 178.881Z"/>
</clipPath>
<rect clip-path="url(#mask)" id="liquid" y="283" width="169" height="170" fill="#A87A21"/>
<path id="tube" d="M52.4089 178.881L117.819 113.465L125.958 121.614L161.196 156.847L169.34 164.991L81.9884 252.343C78.5709 255.756 74.5568 258.361 70.056 260.086C65.5938 261.808 60.8261 262.569 56.0221 262.327C55.623 262.306 55.2249 262.295 54.833 262.295C48.7698 262.295 43.0688 264.657 38.7813 268.945L30.0057 277.731C26.6621 281.06 22.239 282.887 17.5397 282.887H17.5138C12.7594 282.887 8.30265 281.016 4.96452 277.618C-1.77954 270.749 -1.63399 259.521 5.28814 252.589L13.8576 244.019C16.1195 241.758 17.8462 239.098 18.9907 236.11C20.1534 233.103 20.6512 229.945 20.4776 226.709C19.9522 217.129 23.5935 207.692 30.4682 200.821L52.3312 178.951C52.356 178.927 52.3835 178.905 52.4089 178.881Z" fill="#C8D9D3" fill-opacity="0.61"/>
<path id="tubeShine" opacity="0.21" d="M110.134 198L67 241.134" stroke="white" stroke-width="8" stroke-miterlimit="10" stroke-linecap="round"/>
<g id="rubber">
<path id="Vector" d="M270.327 10.6704C277.209 17.5512 281 26.7 281 36.431C281 46.162 277.209 55.3109 270.326 62.1917L194.692 137.825C201.876 145.151 201.836 156.956 194.565 164.232C190.999 167.783 186.288 169.733 181.29 169.733C176.34 169.733 171.684 167.827 168.153 164.366L168.151 164.369L160.007 156.225L124.769 120.992L116.63 112.843C113.169 109.317 111.26 104.659 111.26 99.7065C111.26 94.693 113.212 89.9777 116.758 86.4301C120.304 82.8847 125.018 80.9326 130.033 80.9326C134.984 80.9326 139.641 82.8401 143.17 86.3017L218.808 10.6699C225.69 3.78909 234.838 0 244.568 0C254.298 0 263.446 3.78909 270.327 10.6704Z" fill="#575757"/>
<path id="Vector_2" d="M247.498 49.0988L209.439 87.1584C207.19 89.4071 207.19 93.054 209.439 95.3033C210.563 96.4274 212.037 96.9903 213.511 96.9903C214.985 96.9903 216.459 96.4274 217.583 95.3033L255.643 57.2437C257.891 54.995 257.891 51.3481 255.643 49.0988C253.393 46.8495 249.746 46.8495 247.498 49.0988Z" fill="#4A4A4A"/>
<path id="Vector_3" d="M197.166 99.4303L187.924 108.673C185.675 110.922 185.675 114.568 187.924 116.818C189.048 117.942 190.522 118.505 191.996 118.505C193.47 118.505 194.944 117.942 196.068 116.818L205.31 107.575C207.559 105.326 207.559 101.68 205.31 99.4303C203.061 97.1821 199.415 97.1821 197.166 99.4303Z" fill="#4A4A4A"/>
</g>
</svg>
